<svg id="Layer_1" data-name="Layer 1" xmlns="http://www.w3.org/2000/svg" viewBox="0 0 841.89 595.28"><defs><style>.cls-1{stroke:#000;stroke-miterlimit:10;stroke-width:2px;}</style></defs><title>city2</title><path class="cls-1" d="M118.59,206.32a.84.84,0,0,0,.05-.17,1.14,1.14,0,0,0,0-.23q0-10.29,0-20.58c0-.54,0-1.09,0-1.63,0,0,0,0,0,0l-.05-.06h-5.05c-.21,0-.41-.07-.38-.33s.22-.24.4-.24h3.13c0-.3,0-.53,0-.76q0-7.09,0-14.17c0-.51,0-1,0-1.52s.08-.5.51-.42a3.29,3.29,0,0,0,.58.05l4.2,0a1.9,1.9,0,0,1,.46,0c.19,0,.27.25.13.35-.32.24-.24.55-.24.85q0,4.23,0,8.46a3.17,3.17,0,0,1,0,.52c0,.08-.13.21-.16.2s-.22-.1-.25-.19a2,2,0,0,1,0-.52q0-4.23,0-8.46c0-.23,0-.45,0-.66a26.67,26.67,0,0,0-4.57.08c-.12,1.64,0,15.7.09,16.1h1.32v-5.42a5.25,5.25,0,0,1-.78-.06.37.37,0,0,1-.23-.27c0-.09.14-.22.24-.26a1.12,1.12,0,0,1,.4,0l11.31,0a3.79,3.79,0,0,1,.38,0,3.63,3.63,0,0,1,0,.41,17.32,17.32,0,0,0-.23,1.89c0,1.5,0,3,.07,4.49,0,.19,0,.38,0,.52h3.33V167.06h-3.88c0,.15,0,.24,0,.34q0,4.26,0,8.51a3.18,3.18,0,0,1,0,.58,1.5,1.5,0,0,1-.2.38.59.59,0,0,1-.31-.64c0-2.93,0-5.87,0-8.8a1.53,1.53,0,0,0-.15-.53c-.08-.21,0-.34.19-.4a1.1,1.1,0,0,1,.29,0l3.62,0a.85.85,0,0,1,.6.25,1.05,1.05,0,0,1,.35.93q0,8,0,15.92c0,.23,0,.46,0,.71l.88.13c0-2.47,0-4.88.09-7.36h5.49c0-.22,0-.37,0-.53,0-2.53,0-5.05,0-7.58a8.13,8.13,0,0,0-.14-1,3.68,3.68,0,0,1,.16-.37,1.58,1.58,0,0,1,.2-.25c.09.08.19.16.27.25a.89.89,0,0,1,.1.2h.66c1.22,0,2.45,0,3.67,0a.76.76,0,0,1,.74.35,1.31,1.31,0,0,1,.1.61q0,7.23.05,14.46c0,.15,0,.3,0,.51h.61l1.75,0a1.77,1.77,0,0,1,.37.07c0,.47,0,.85,0,1.22q0,7.06,0,14.11c0,.23,0,.45,0,.7l1.18-.19c0-.27,0-.5,0-.73q0-10.18,0-20.35c0-.66.08-1.33,0-2,0-.33,0-.51.2-.61a6.56,6.56,0,0,0,.74.1l6.76,0c.25,0,.49,0,.82-.08a2.38,2.38,0,0,1,.09.42c0,.17,0,.34,0,.52q0,4.9,0,9.8c0,.19,0,.38,0,.61h2.71c0-.19,0-.36,0-.53,0-2.9,0-5.79,0-8.69A12.51,12.51,0,0,0,161,176a.76.76,0,0,0-.15-.31,10,10,0,0,0-2.78-2.52c-1.2-.71-2.47-1.31-3.68-2a13.48,13.48,0,0,1-2-1.33c-.79-.66-1.5-1.41-2.24-2.12-.2-.19-.42-.35-.63-.52l-1.09-.87c-.33-.27-.67-.53-1-.82a10.9,10.9,0,0,1-.79-.77c-.69-.74-1.32-1.54-2-2.23-1.18-1.13-2.42-2.19-3.63-3.28a10.44,10.44,0,0,0-3-2c-1.58-.65-3.19-1.21-4.82-1.74a22.6,22.6,0,0,1-4.34-1.69c-.1-.06-.23-.09-.29-.17-.41-.52-.8-1-1.2-1.57a5.92,5.92,0,0,0-.67-.8c-1.39-1.25-2.75-2.52-4.2-3.7a43.54,43.54,0,0,1-5.68-5.27,29.32,29.32,0,0,0-3.13-3.13c-1.88-1.61-4.15-1.9-6.5-1.9a.7.7,0,0,0-.52.29,3.76,3.76,0,0,1-1.3,1.39,1.47,1.47,0,0,0-.24.25c-.66.68-1.32,1.37-2,2a3.14,3.14,0,0,1-.46.36,6.68,6.68,0,0,1-3,.95c-1.56.21-3.13.33-4.69.49a4.35,4.35,0,0,0-2.38.85c-1.55,1.23-3.13,2.43-4.7,3.64a8.75,8.75,0,0,0-1.84,1.78c-.59.82-1.18,1.64-1.73,2.49a10.42,10.42,0,0,1-2.16,2.34c-1.5,1.24-2.95,2.53-4.42,3.8-.25.22-.52.41-.77.62l-1.17,1c-.56.45-1.11.91-1.7,1.32a5.12,5.12,0,0,0-1.39,1,.31.31,0,0,1-.5.08.31.31,0,0,1,0-.47,9.77,9.77,0,0,1,1-.84c.39-.28.85-.48,1.23-.78.94-.75,1.87-1.51,2.79-2.29,1.67-1.42,3.34-2.85,5-4.3a9.12,9.12,0,0,0,1.26-1.37c.68-.9,1.28-1.86,2-2.76a7.85,7.85,0,0,1,1.19-1.35c1.14-1,2.33-1.88,3.5-2.8.67-.53,1.37-1,2-1.55a4,4,0,0,1,2-.91c1.35-.18,2.7-.38,4-.48a17.15,17.15,0,0,0,2.93-.44,3.9,3.9,0,0,0,2-1.18c.59-.64,1.21-1.26,1.81-1.89a1,1,0,0,1,.22-.19,2.47,2.47,0,0,0,1-1.06,1.18,1.18,0,0,1,1.19-.67l1.92.11a8.68,8.68,0,0,1,3.14.82,13.13,13.13,0,0,1,4.11,3.39,43.74,43.74,0,0,0,5.23,5.14,57.71,57.71,0,0,1,6.06,5.34l1.61-.34c.36-.08.72-.14,1.07-.25s1-.33,1.42-.52,1-.41,1.43-.64,1.18-.67,1.81-.94a34.39,34.39,0,0,0,5.85-3l.15-.08a11.28,11.28,0,0,0,2.6-1.42c.2-.15.45-.23.67-.36l2.85-1.68a2.91,2.91,0,0,0,.4-.34c.2-.18.4-.38.61-.54a1.4,1.4,0,0,0,.56-.92,1.88,1.88,0,0,1,1.55-1.55,11.08,11.08,0,0,0,2.1-.66,2.61,2.61,0,0,1,.68-.17l3.28-.47c.54-.08,1.08-.13,1.62-.22a5.67,5.67,0,0,1,3,.64c1.79.73,3.54,1.59,5.31,2.39a8.89,8.89,0,0,0,1.26.45,12.64,12.64,0,0,1,2.86,1.14c.91.52,1.82,1,2.74,1.54a25.07,25.07,0,0,1,5.51,3.89c.49.47,1,1,1.48,1.4a44.38,44.38,0,0,0,13.2,7.29,15.75,15.75,0,0,1,4.3,2.27,20,20,0,0,0,4.1,2.54c.6.27,1.19.59,1.8.83s1.31.48,2,.68,1.36.32,2,.55c1.58.55,3.14,1.14,4.7,1.73a13.24,13.24,0,0,0,3.84,1.14,13.07,13.07,0,0,1,2.11.34,6.37,6.37,0,0,0,1.56.15,10.33,10.33,0,0,1,3.33.5,5.44,5.44,0,0,0,.56.14c.65.13,1.3.22,1.94.38a13.36,13.36,0,0,0,3,.47,5.17,5.17,0,0,1,2,.45c1.06.48,2.15.9,3.21,1.38a23.9,23.9,0,0,1,3.73,2,4.31,4.31,0,0,1,1.18,1.2c.19.29.43.55.62.84q.75,1.11,1.47,2.23a1.13,1.13,0,0,1,.09.35.71.71,0,0,1-.41-.26c-.73-1-1.43-2-2.17-3a5,5,0,0,0-1-1,20.5,20.5,0,0,0-3.67-2c-.83-.38-1.67-.72-2.51-1.09a7.78,7.78,0,0,0-2.91-.75,10.15,10.15,0,0,1-1.79-.21c-1.42-.3-2.83-.66-4.25-1-.49-.11-1-.18-1.49-.26a.88.88,0,0,0-.46,0c-.82.37-1.6-.07-2.39-.12-.42,0-.82-.23-1.24-.29a17.07,17.07,0,0,1-3.89-1c-1.63-.64-3.28-1.22-4.93-1.79-.75-.26-1.53-.43-2.3-.65a13,13,0,0,1-1.62-.47,29.33,29.33,0,0,1-7-4,10.58,10.58,0,0,0-3.17-1.69,53,53,0,0,1-9.74-4.57,25.36,25.36,0,0,1-4.91-3.64,26.81,26.81,0,0,0-6.41-4.71c-.69-.36-1.39-.71-2-1.13a12.33,12.33,0,0,0-3.19-1.39,12.13,12.13,0,0,1-1.53-.55c-1.45-.65-2.88-1.36-4.34-2-.74-.32-1.55-.5-2.3-.8a2.43,2.43,0,0,0-1.25-.13c-1.1.14-2.2.25-3.29.42a14.88,14.88,0,0,0-2.28.47,17.66,17.66,0,0,1-2,.61,1.39,1.39,0,0,0-1.17,1.15,1.6,1.6,0,0,1-.33.79,9.63,9.63,0,0,1-1.67,1.44,19.08,19.08,0,0,0-1.71,1.09,7.67,7.67,0,0,1-1,.53c-.41.23-.8.48-1.21.7l-1.63.89-1,.54c-.22.13-.41.3-.63.41l-4.52,2.16c-.68.33-1.35.67-2,1-.38.19-.74.43-1.14.59-.78.3-1.56.58-2.36.83a2.1,2.1,0,0,0-.9.59c-.54.56-.27,1,.26,1.3s.81.37,1.23.52c2.21.79,4.42,1.58,6.65,2.34a11.31,11.31,0,0,1,4.36,2.83c.26.26.55.5.82.74.91.81,1.83,1.62,2.74,2.44a5.67,5.67,0,0,1,.65.74,19.59,19.59,0,0,0,3.53,3.37,19.34,19.34,0,0,1,1.83,1.62,13.48,13.48,0,0,0,5,3.45,12.49,12.49,0,0,1,2.24,1.2,9.29,9.29,0,0,0,2.79,1.26,1,1,0,0,0,.26,0v-1.39l6.39.07v2.24c.5,0,.92,0,1.35,0a2,2,0,0,0,.43-.15c.37-.11.63.06.63.43s-.06.66-.06,1q0,2.16,0,4.31a.67.67,0,0,0,.09.38c.29.38.6.76.91,1.12s.78.85,1.16,1.29c.2.22.36.47.55.71l.1,0v-9.29a10.93,10.93,0,0,1,1.13-.12h8a3.13,3.13,0,0,0,.58,0c.44-.08.69,0,.7.45,0,.83,0,1.67,0,2.5,0,.46-.13.92-.13,1.39,0,3,0,6.07,0,9.1a6,6,0,0,0,.52,2.88,2.14,2.14,0,0,1,.13.39c.43,1.5,1.58,2.43,2.74,3.51,0-.33,0-.54,0-.74q0-3.91,0-7.81,0-4.49,0-9a2.65,2.65,0,0,1,.28-1.41h3.69c0-.18,0-.3,0-.41q0-.84,0-1.69c0-.34.07-.43.32-.42l2.67.1c.46,0,.91,0,1.43,0v2.47h1.76c0,.39,0,.7,0,1q0,9.94,0,19.89a2.41,2.41,0,0,0,0,.64,3.73,3.73,0,0,0,3,2.46c0-.18,0-.35,0-.52q0-11,0-22a4,4,0,0,0,0-.58c-.07-.5,0-.56.44-.56H209a2.55,2.55,0,0,1,.46.08l.08,28a3.91,3.91,0,0,0,.45,0,5.18,5.18,0,0,1,1.66.25,17.07,17.07,0,0,0,4.54.68c1.57,0,3.15,0,4.72,0a10.18,10.18,0,0,1,1.34.08,43.44,43.44,0,0,0,7.32.5,2.29,2.29,0,0,0,1.34-.31c.16-.11.38-.17.51.06a.33.33,0,0,1-.2.48,3.8,3.8,0,0,1-1.16.34,38.66,38.66,0,0,1-6.52-.29c-1.06-.14-2.13-.22-3.19-.26s-2.41,0-3.62,0a18.94,18.94,0,0,1-5.69-.81,1.79,1.79,0,0,0-1.61.1c-.06,0-.18,0-.27,0s-.31,0-.46,0l-2.15.22a6.76,6.76,0,0,0-2.85.74,1.66,1.66,0,0,1-1.58.14c-.82-.42-1.74-.39-2.56-.73a5.21,5.21,0,0,0-2-.23c-.32,0-.61,0-.76.31a2.1,2.1,0,0,0-.6-.22c-1.69,0-3.38,0-5.07,0a13.86,13.86,0,0,0-1.73.15,7,7,0,0,0-1,.24c-.39.11-.78.24-1.17.34-.69.18-1.38.39-2.09.51a2.39,2.39,0,0,1-1.93-.48,2.45,2.45,0,0,0-1.68-.5c-1,0-1.94,0-2.91,0-.71,0-1.42-.16-2.14-.19s-1.71,0-2.57,0a1.66,1.66,0,0,0-1.12.39,2.45,2.45,0,0,1-1,.5,13.65,13.65,0,0,1-3.81.36,2.83,2.83,0,0,1-1-.2,7.15,7.15,0,0,0-3.11-.64c-.58,0-1.17,0-1.75,0s-1.27-.12-1.91-.19a9.07,9.07,0,0,0-1-.12l-6.35,0c-.68,0-1.36,0-2,0a3.71,3.71,0,0,1-.85.08,3,3,0,0,0-1.81.27,3.2,3.2,0,0,1-3.11-.55,9.52,9.52,0,0,0-1.41-.79.57.57,0,0,0-.84.35,1.42,1.42,0,0,1-.92.74c-.2.07-.42.1-.62.16a10.62,10.62,0,0,1-3.93.68,7.45,7.45,0,0,0-1.65.25,4.37,4.37,0,0,1-2.24-.12c-.84-.29-1.66-.66-2.49-1a4.69,4.69,0,0,0-.79-.15,3.5,3.5,0,0,0-1.41.27,3.86,3.86,0,0,0-.82.27,3.71,3.71,0,0,1-1.81.57,2.07,2.07,0,0,0-.56.14,5.29,5.29,0,0,1-1,.23q-3,.12-6,.19a3.92,3.92,0,0,1-1.15-.17c-.93-.27-1.86-.54-2.76-.88a3.71,3.71,0,0,0-1.42-.23c-.43,0-.86,0-1.28,0a2.05,2.05,0,0,0-1.54.37.69.69,0,0,1-.32.12c-.88.15-1.75.36-2.64.43s-2,0-3,0c-1.24,0-2.48-.08-3.72-.12s-2.52-.08-3.79-.09a25,25,0,0,1-2.66-.23,7.79,7.79,0,0,1-2.34-.64,4,4,0,0,0-1-.34,11.72,11.72,0,0,0-1.9-.2c-1.77,0-3.53-.07-5.3.09a11,11,0,0,0-3.29.31c-.17.07-.35,0-.39-.29a8.83,8.83,0,0,1,1.6-.46c1.37-.13,2.75-.2,4.13-.24s2.64,0,4,0c0-.26,0-.47,0-.68q0-13.5,0-27a2.13,2.13,0,0,0,0-.75,2.27,2.27,0,0,1,.07-1.27c1.36,0,2.66,0,4,0,0-.25,0-.42,0-.59q0-3.09.05-6.18c0-.14,0-.27,0-.41s.19-.4.38-.28a1.39,1.39,0,0,0,.84.13l6.06,0c.71,0,.74,0,.75.77,0,.12,0,.23,0,.35q0,5.25.07,10.5c0,.22,0,.45,0,.69h2.28v-2.92c.55,0,1,0,1.47,0a5.52,5.52,0,0,0,1.43-.06,1.41,1.41,0,0,0,0-.2q0-4.4,0-8.81c0-.24,0-.48-.24-.66s-.13-.35.09-.45a1.12,1.12,0,0,1,.45-.1c.66,0,1.31.07,2,.08.83,0,1.65,0,2.48,0,0,.16,0,.25,0,.35,0,1.34.1,2.68.11,4,0,1.75,0,3.5,0,5.25,0,.28-.07.58.27.76.05,0,0,.21,0,.38l-7.62.06v28.59h.64a19.15,19.15,0,0,0,3.08-.17,4.7,4.7,0,0,0,1.87-.57,1.88,1.88,0,0,1,.77-.18c.3,0,.61,0,1,0,0-.31,0-.54,0-.77,0-4.86,0-9.72,0-14.58,0-3.67.06-7.35.1-11,0-.37.06-.73.09-1.1h.13c0,.42.1.85.1,1.27,0,3.34.08,6.69.09,10,0,5.15,0,10.3,0,15.45,0,.22,0,.45,0,.71.32,0,.57,0,.81,0a4.39,4.39,0,0,1,.91.14c.78.24,1.54.53,2.31.78.48.15,1,.25,1.46.38A1.48,1.48,0,0,0,118.59,206.32Zm.71-28.75c0,.2,0,.37,0,.54q0,12.62,0,25.24a10.29,10.29,0,0,0,.25,1.83,2.83,2.83,0,0,0,.3.69.39.39,0,0,0,.52.22.92.92,0,0,1,.88.14,1.06,1.06,0,0,0,.6.16c1,0,2-.07,3-.12a2.74,2.74,0,0,0,.45-.11l1.18-.26a4.66,4.66,0,0,0,.67-.19c.48-.19,1-.41,1.43-.62a.38.38,0,0,0,.2-.18c.14-.44.26-.88.38-1.33a13,13,0,0,0,.14-3.13q0-9.82.07-19.64c0-1,0-1.94,0-2.91a2.94,2.94,0,0,0,0-.3ZM183,175h-9.38v29.72c.58,0,1.08,0,1.58,0,1,0,2,.13,3,.16,1.24,0,2.48.07,3.73.1.33,0,.65,0,1,.07Zm6.45,29.84a11.84,11.84,0,0,1,2-.13c1.46,0,2.91,0,4.37.07a7.15,7.15,0,0,0,.78-.08V176.31a1.63,1.63,0,0,0-.36-.08l-8.51,0-.2,0a17.93,17.93,0,0,0-.27,2.74q0,12.71,0,25.42c0,.27,0,.54,0,.91C188,205.15,188.7,204.92,189.4,204.8ZM99.12,175.4c-.2,0-.37,0-.54,0l-3.26,0c-.36,0-.75-.09-1,.34a1.16,1.16,0,0,0-1-.33c-.93,0-1.86,0-2.79,0v29c1,.38,1.94.79,2.91,1a17.05,17.05,0,0,0,2.64.39c.77.08,1.55.09,2.33.12h.72Zm110.12,1.29c-.35-.11-8-.13-8.79,0V205l.73.22a2.58,2.58,0,0,1,.56.16,2.06,2.06,0,0,0,2.19-.09,6,6,0,0,1,2.42-.56l2.26-.23c.17,0,.33-.07.54-.11C209.19,195.15,209.13,185.93,209.24,176.69Zm-39.89-1.37-7.17,0-.15,0a9.42,9.42,0,0,0-.22,1.44q0,13.67,0,27.35c0,.29,0,.58,0,.9.18,0,.33,0,.47,0,.6,0,1.21,0,1.81,0a7.5,7.5,0,0,1,3.22.67,2.05,2.05,0,0,0,.78.16,10.35,10.35,0,0,0,1.82,0V175.47A2.13,2.13,0,0,0,169.35,175.32ZM142,176.46c-.23.42.21.92-.18,1.24h-6.64v28.36a1.36,1.36,0,0,0,.42,0,4.82,4.82,0,0,1,2.12-.29,9.86,9.86,0,0,0,3.41-.61c.19-.05.37-.12.56-.16a1,1,0,0,0,.81-.66,1,1,0,0,1,.28-.36c.22-.22.45-.43.67-.64a.84.84,0,0,0,.27-.68c0-.85-.05-1.71-.06-2.56,0-.37.07-.73.07-1.1q0-10.82.08-21.63c0-.31,0-.61,0-.91Zm8.68,0a.9.9,0,0,0-.28.76c0,7.31,0,14.61.06,21.92,0,.82-.07,1.64,0,2.46s0,1.67,0,2.51c0,.21,0,.42,0,.66,2.62.15,5.17-.09,7.77,0V176.5Zm-16.08,28.95c0-5.87,0-11.74,0-17.6,0-.71-.16-1.41-.14-2.13a.61.61,0,0,0-.28-.39,2.67,2.67,0,0,0-1.42-.42c-.66,0-1.32,0-2,0a.9.9,0,0,0-.88.9c0,1.09,0,2.18,0,3.26,0,4.26,0,8.51,0,12.77a9.37,9.37,0,0,0,.31,2.18,1.4,1.4,0,0,0,.88.87c.36.15.73.26,1.09.4s1,.38,1.45.6a1.26,1.26,0,0,0,1,.13C134.57,205.82,134.57,205.63,134.57,205.44Zm-40-37.34v6.69c.19,0,.34.05.49.05,1.24,0,2.49,0,3.73,0a4.66,4.66,0,0,0,.79-.16l.22.17c.26.21.29.29,0,.45a.37.37,0,0,0-.19.37c0,.14,0,.27,0,.41q0,4.28,0,8.57c0,.21,0,.42,0,.66h1.86l0,0s0,0,0,0a1.45,1.45,0,0,0,0-.23q0-8.37,0-16.73a.94.94,0,0,0,0-.19Zm53.63,31.74V184.23h-3.94v15.43A21.53,21.53,0,0,0,148.22,199.85Zm24.12,4.88a7.75,7.75,0,0,0,.81-3.34c0-5,0-10.07,0-15.1a3.55,3.55,0,0,0-1.32-2.78c-.45-.39-.93-.75-1.45-1.16V205.8A1.87,1.87,0,0,0,172.34,204.73Zm-26.79-21.09V168.36h-4.8c0,2.9,0,5.78,0,8.7h.62c0-.25.07-.5.1-.75a.37.37,0,0,1,.41-.38c.49,0,1,0,1.46,0a3.89,3.89,0,0,1,.77.23c0,1.2.06,2.44.07,3.67s0,2.48,0,3.8Zm14.9,4.69c-.41,0-.82,0-1.22,0-.19,0-.38,0-.6,0v16.3l2.63.32c.13-.44.2-14.94.08-16.85A7.4,7.4,0,0,1,160.45,188.33Zm-52.45-21v9.62h3.84v-9.62Zm-5.81,32.8V186H99.7V199.9Zm81.2-7.72c0,2,0,4,0,6,0,1,.07,2,.13,3,0,.54.12,1.08.16,1.62a4.09,4.09,0,0,0,.8,1.72.2.2,0,0,0,.09.07c.68.3,1.33.75,2.19.34,0-.16,0-.35,0-.54,0-2.82,0-5.64,0-8.45a.82.82,0,0,0-.43-.85,8.48,8.48,0,0,1-.8-.67,8.85,8.85,0,0,1-2.12-2.91C183.4,192,183.39,192.19,183.39,192.37Zm-79,8c.11-.35.18-19,.07-19.91h-2.21v4.58c.16.09.38.15.48.29s0,.36,0,.55,0,.43,0,.64q0,6.53,0,13.06c0,.21,0,.43,0,.67Zm.06.67c-1.6.23-3.15-.17-4.74,0v4.85c.05,0,.08.07.12.07l4.24.14a3.7,3.7,0,0,0,.38,0Zm39.82-.81a8.28,8.28,0,0,0,0,.9,10.38,10.38,0,0,0,.5,2.62,1.37,1.37,0,0,0,.49.7,7.05,7.05,0,0,0,1.13.69,2.21,2.21,0,0,0,1.64.07l.89-.27a1.24,1.24,0,0,0,1-1.33c0-.52,0-1,0-1.57a2.69,2.69,0,0,0-.56-1.66A21.32,21.32,0,0,1,144.24,200.27ZM197,204.58a8.25,8.25,0,0,0,1.49.08c.47.06.94.15,1.44.23a1.1,1.1,0,0,0,.05-.23c0-1.22,0-2.44,0-3.67,0-.24-.06-.41-.3-.49a7.12,7.12,0,0,1-2.59-1.68H197ZM167.66,173H162c0,.62,0,1.21,0,1.79a41.71,41.71,0,0,0,5.68.06Zm27.17,2.8v-2h-3.58v2Z"/><path d="M241.79,175.76c3.6,6.22,9.05,11.23,14.65,15.9s11.56,9.05,17.41,13.54,11.46,9.33,17.17,13.92a92.55,92.55,0,0,0,8.88,6.38,59.87,59.87,0,0,0,9.72,4.87,76.12,76.12,0,0,0,10.43,3.2c1.77.42,3.57.79,5.36,1.12s3.56.51,5.5,1a31.94,31.94,0,0,1,9.85,5.53c3,2.28,5.71,4.75,8.42,7.27,5.39,5.06,10.56,10.31,15.81,15.46s10.54,10.26,16,15.19a273.62,273.62,0,0,0,34.75,27,212.81,212.81,0,0,0,39.13,20.05,207.44,207.44,0,0,0,42.48,11.37,236.08,236.08,0,0,0,43.94,2.68,294.68,294.68,0,0,0,43.81-4.72,430.51,430.51,0,0,0,42.9-10.3c14.13-4.12,28.07-8.87,41.87-14s27.44-10.7,41.06-16.3,27.22-11.26,40.94-16.62,27.58-10.39,41.62-14.83a413.38,413.38,0,0,1,86.4-17.8,413.25,413.25,0,0,0-86.32,18.05c-14,4.49-27.86,9.56-41.56,15s-27.28,11.1-40.88,16.74-27.24,11.22-41,16.43-27.74,10-41.87,14.15a429.47,429.47,0,0,1-43,10.45,295.67,295.67,0,0,1-44,4.85,237.18,237.18,0,0,1-44.15-2.58,208.66,208.66,0,0,1-42.76-11.32A214.15,214.15,0,0,1,415,307.39a275.07,275.07,0,0,1-35-27.07c-5.49-4.93-10.82-10-16.08-15.19s-10.45-10.39-15.82-15.39c-2.69-2.5-5.43-4.93-8.31-7.15a30.42,30.42,0,0,0-9.31-5.22c-1.61-.45-3.55-.62-5.35-1s-3.64-.7-5.45-1.13A77.84,77.84,0,0,1,309,232a61.65,61.65,0,0,1-10-5,94.31,94.31,0,0,1-9.07-6.48c-5.78-4.62-11.34-9.42-17.19-13.85s-11.78-8.83-17.5-13.54-11.31-9.81-15.15-16.4Z"/><path d="M230.66,204.9a26.37,26.37,0,0,1,11.58-.36,46.47,46.47,0,0,1,10.89,3.54c6.93,3.16,13.27,7.26,19.54,11.38,12.49,8.26,24.76,17,38.55,22.66q2.58,1,5.22,1.93c.88.3,1.76.57,2.65.83s1.83.56,2.72.89A44.07,44.07,0,0,1,332,251a65.65,65.65,0,0,1,15.76,16.28,175.83,175.83,0,0,1,11.6,19.37c3.51,6.64,6.83,13.36,10.23,20,6.78,13.34,13.95,26.53,22.79,38.58a134.7,134.7,0,0,0,31.58,31.42,132.52,132.52,0,0,0,40.41,18.77,193.47,193.47,0,0,0,44.26,6.61c7.47.31,15,.21,22.45.08s15-.39,22.46-.8c15-.81,29.89-2.14,44.73-4.17s29.59-4.75,44.16-8.24a446.21,446.21,0,0,0,43.09-12.71c14.16-4.9,28.07-10.51,42.08-15.84s28.26-10.26,43.1-12.65q5.55-.9,11.17-1.29t11.24-.43a166.25,166.25,0,0,1,22.45,1.06A104.19,104.19,0,0,1,826.62,349a76.32,76.32,0,0,1,10.77,3.21,47.72,47.72,0,0,1,10,5.14,30.82,30.82,0,0,1,4.32,3.59,16.53,16.53,0,0,1,3.31,4.51,16.53,16.53,0,0,0-3.32-4.5,30.8,30.8,0,0,0-4.33-3.57,47.68,47.68,0,0,0-10-5.11,76.25,76.25,0,0,0-10.77-3.18,104.07,104.07,0,0,0-11.08-1.84,166.1,166.1,0,0,0-22.44-1q-5.62.09-11.23.46T770.71,348c-14.81,2.42-29,7.42-43,12.75s-27.89,11-42,16a446.76,446.76,0,0,1-43.11,12.85q-21.87,5.3-44.2,8.37c-14.86,2.07-29.81,3.45-44.79,4.3-7.49.43-15,.7-22.48.86s-15,.27-22.51,0A194.5,194.5,0,0,1,464,396.56a133.69,133.69,0,0,1-40.82-18.82,136,136,0,0,1-32-31.63c-8.95-12.12-16.19-25.36-23-38.7-3.43-6.67-6.76-13.38-10.28-20a174.32,174.32,0,0,0-11.54-19.16A64,64,0,0,0,331,252.43a42.35,42.35,0,0,0-9.77-5c-.87-.31-1.74-.58-2.62-.85s-1.82-.54-2.72-.84q-2.7-.89-5.33-2C296.51,238,284.13,229.24,271.65,221c-6.26-4.09-12.56-8.13-19.31-11.18a44.55,44.55,0,0,0-10.44-3.37,24.38,24.38,0,0,0-10.71.35Z"/><path d="M72.82,162.76a63.3,63.3,0,0,1-7.16,4.54,49.8,49.8,0,0,1-7.74,3.47,26.37,26.37,0,0,1-8.43,1.57,13.19,13.19,0,0,1-8.28-2.63,10.35,10.35,0,0,1-2.83-3.42A15,15,0,0,1,37,162.15a44.66,44.66,0,0,1-.51-8.44,149.49,149.49,0,0,0-.22-16.62A58.93,58.93,0,0,0,35,128.93a37.61,37.61,0,0,0-2.63-7.8,48.79,48.79,0,0,0-9.83-13.24A93.61,93.61,0,0,0,9.64,97.35,118.63,118.63,0,0,0-4.71,88.88,118.75,118.75,0,0,1,9.78,97.15a94,94,0,0,1,13.08,10.37A49.4,49.4,0,0,1,33,120.79a38.43,38.43,0,0,1,2.81,7.93A59.87,59.87,0,0,1,37.27,137a150.35,150.35,0,0,1,.48,16.72,43.51,43.51,0,0,0,.61,8.18,10.5,10.5,0,0,0,3.77,6.64,11.62,11.62,0,0,0,7.36,2.19,24.72,24.72,0,0,0,7.87-1.6,56.51,56.51,0,0,0,14.26-7.94Z"/><path d="M80.91,206.45a56.29,56.29,0,0,1-9.54,2.3,49.73,49.73,0,0,1-9.78.56,32.2,32.2,0,0,1-9.68-1.86,19.63,19.63,0,0,1-8.09-5.71A28.83,28.83,0,0,1,39,193.2a57.64,57.64,0,0,1-2.58-9.38,174.5,174.5,0,0,1-2.24-19.19c-.49-6.4-.9-12.81-1.83-19.14a59.71,59.71,0,0,0-2.08-9.34c-.22-.77-.54-1.5-.81-2.25s-.65-1.45-1-2.17-.78-1.38-1.18-2.06l-1.36-2a33.58,33.58,0,0,0-6.64-6.84,25.14,25.14,0,0,0-8.5-4.28A27.62,27.62,0,0,0-8,118.25a27.75,27.75,0,0,1,18.82-1.91,25.45,25.45,0,0,1,8.66,4.22,34,34,0,0,1,6.82,6.84l1.41,2c.42.69.85,1.38,1.24,2.1s.73,1.45,1,2.21.62,1.5.85,2.27A60.38,60.38,0,0,1,33,145.37c1,6.37,1.51,12.79,2.09,19.18a173.52,173.52,0,0,0,2.47,19,56.34,56.34,0,0,0,2.64,9.13A27.41,27.41,0,0,0,45,200.76a18.06,18.06,0,0,0,7.52,5.17,30.56,30.56,0,0,0,9.18,1.63,52.75,52.75,0,0,0,18.55-3Z"/></svg>